<svg width="316" height="316" viewBox="0 0 316 316" fill="none" xmlns="http://www.w3.org/2000/svg">
<circle cx="158" cy="158" r="158" fill="#232323"/>
<path d="M165.102 165.267V267H186.745V228.244H224.622C259.793 228.244 259.793 165.267 224.622 165.267H165.102Z" stroke="white" stroke-width="9"/>
<path d="M186.745 213.711V182.222H219.211C238.149 182.222 238.149 213.711 219.211 213.711H186.745Z" stroke="white" stroke-width="9"/>
<path d="M151.575 165.267V267H129.255V228.244H91.3782C56.2073 228.244 56.2073 165.267 91.3782 165.267H151.575Z" stroke="white" stroke-width="9"/>
<path d="M129.255 213.711V182.222H96.7891C77.8509 182.222 77.8509 213.711 96.7891 213.711H129.255Z" stroke="white" stroke-width="9"/>
<path d="M165.102 150.733V49H186.745V87.7556H224.622C259.793 87.7556 259.793 150.733 224.622 150.733H165.102Z" stroke="white" stroke-width="9"/>
<path d="M186.745 102.289V133.778H219.211C238.149 133.778 238.149 102.289 219.211 102.289H186.745Z" stroke="white" stroke-width="9"/>
<path d="M151.575 150.733V49H129.255V87.7556H91.3782C56.2073 87.7556 56.2073 150.733 91.3782 150.733H151.575Z" stroke="white" stroke-width="9"/>
<path d="M129.255 102.289V133.778H96.7891C77.8509 133.778 77.8509 102.289 96.7891 102.289H129.255Z" stroke="white" stroke-width="9"/>
</svg>
