<svg width="38" height="38" viewBox="0 0 38 38" fill="none" xmlns="http://www.w3.org/2000/svg">
<path d="M20.3745 20.2V37H24.5636V30.6H31.8945C38.7018 30.6 38.7018 20.2 31.8945 20.2H20.3745Z" stroke="white" stroke-width="1.5"/>
<path d="M24.5636 28.2V23H30.8473C34.5127 23 34.5127 28.2 30.8473 28.2H24.5636Z" stroke="white" stroke-width="1.5"/>
<path d="M17.7564 20.2V37H13.4364V30.6H6.10545C-0.701818 30.6 -0.701818 20.2 6.10545 20.2H17.7564Z" stroke="white" stroke-width="1.5"/>
<path d="M13.4364 28.2V23H7.15273C3.48727 23 3.48727 28.2 7.15273 28.2H13.4364Z" stroke="white" stroke-width="1.5"/>
<path d="M20.3745 17.8V1H24.5636V7.4H31.8945C38.7018 7.4 38.7018 17.8 31.8945 17.8H20.3745Z" stroke="white" stroke-width="1.5"/>
<path d="M24.5636 9.8V15H30.8473C34.5127 15 34.5127 9.8 30.8473 9.8H24.5636Z" stroke="white" stroke-width="1.5"/>
<path d="M17.7564 17.8V1H13.4364V7.4H6.10545C-0.701818 7.4 -0.701818 17.8 6.10545 17.8H17.7564Z" stroke="white" stroke-width="1.5"/>
<path d="M13.4364 9.8V15H7.15273C3.48727 15 3.48727 9.8 7.15273 9.8H13.4364Z" stroke="white" stroke-width="1.5"/>
</svg>
